<?xml version="1.0" standalone="no"?>
<!DOCTYPE svg PUBLIC "-//W3C//DTD SVG 20010904//EN"
 "http://www.w3.org/TR/2001/REC-SVG-20010904/DTD/svg10.dtd">
<svg version="1.0" xmlns="http://www.w3.org/2000/svg"
 width="1024.000000pt" height="1024.000000pt" viewBox="0 0 1024.000000 1024.000000"
 preserveAspectRatio="xMidYMid meet">
<metadata>
Created by potrace 1.11, written by Peter Selinger 2001-2013
</metadata>
<g transform="translate(0.000000,1024.000000) scale(0.100000,-0.100000)"
fill="#000000" stroke="none">
<path d="M3945 8574 c-328 -49 -577 -221 -794 -549 -110 -168 -167 -291 -200
-440 -54 -237 -81 -474 -81 -715 0 -169 8 -248 55 -540 19 -118 36 -231 37
-250 3 -24 6 -11 12 40 13 125 33 205 107 440 182 577 323 871 513 1069 169
176 341 241 520 195 158 -40 315 -148 639 -439 212 -190 285 -244 388 -286 75
-31 279 -39 344 -15 119 46 211 250 185 412 -26 158 -154 371 -317 525 -261
246 -661 453 -1020 529 -94 20 -321 34 -388 24z"/>
<path d="M6835 8299 c-196 -29 -401 -147 -511 -293 -56 -73 -118 -198 -139
-281 -47 -185 9 -431 139 -602 90 -119 207 -200 366 -254 177 -60 403 -50 574
25 228 101 385 297 442 552 54 243 -76 549 -302 710 -158 113 -388 171 -569
143z"/>
<path d="M9446 6998 c-2 -7 -9 -38 -15 -70 -22 -104 -195 -427 -321 -598 -100
-135 -185 -224 -340 -358 -249 -214 -437 -341 -586 -398 -141 -53 -252 -17
-401 131 -106 106 -137 162 -238 435 -139 374 -250 514 -442 560 -88 20 -155
-5 -241 -92 -167 -167 -204 -424 -106 -727 45 -139 147 -342 231 -461 130
-183 375 -405 537 -487 153 -77 358 -98 537 -55 381 92 839 449 1084 843 100
161 233 447 293 629 68 206 80 300 65 548 -6 109 -7 112 -30 112 -13 0 -25 -6
-27 -12z"/>
<path d="M3523 5715 c-78 -17 -155 -58 -194 -102 -121 -138 -137 -395 -36
-588 31 -60 169 -208 286 -308 l54 -46 -79 -87 c-234 -259 -462 -492 -1080
-1109 -375 -374 -803 -808 -952 -965 -148 -157 -325 -337 -393 -400 -171 -159
-449 -432 -449 -441 0 -21 135 34 290 118 226 123 370 208 910 538 245 150
526 319 625 377 1081 630 1397 828 1592 996 49 43 139 114 199 157 60 43 151
109 202 147 l93 69 67 -37 c100 -55 161 -93 222 -141 110 -85 110 -85 120
-147 9 -55 8 -60 -20 -100 -78 -114 -219 -221 -430 -326 -69 -35 -238 -122
-376 -195 -439 -233 -769 -393 -1028 -500 -101 -41 -153 -67 -210 -103 -36
-22 -38 -25 -21 -35 28 -15 277 -12 475 7 347 32 487 54 650 101 47 13 229 63
405 110 685 185 915 289 1204 544 157 139 301 370 309 495 5 78 -16 162 -65
262 -93 188 -431 575 -713 818 -58 49 -154 134 -215 188 -214 190 -538 424
-702 507 -107 53 -388 167 -463 186 -88 23 -204 27 -277 10z"/>
<path d="M6867 3903 c-4 -3 -7 -588 -7 -1300 l0 -1293 1300 0 1300 0 0 1300 0
1300 -1293 0 c-712 0 -1297 -3 -1300 -7z m2443 -146 c0 -1 -520 -522 -1155
-1157 l-1155 -1155 0 1158 0 1157 1155 0 c635 0 1155 -1 1155 -3z"/>
</g>
</svg>
